<svg width="27" height="27" viewBox="0 0 27 27" fill="none" xmlns="http://www.w3.org/2000/svg">
<path fill-rule="evenodd" clip-rule="evenodd" d="M2.89306 0.207254C1.64562 0.638156 0.896791 1.31092 0.338231 2.50262L0.0451798 3.12783L0.0108831 5.84145C-0.017926 8.12448 0.00444602 8.65132 0.151447 9.16257C0.489242 10.3371 1.30539 11.2958 2.4069 11.8118L2.99996 12.0896H6.06028H9.12059L9.724 11.807C10.5666 11.4125 11.3214 10.672 11.7334 9.83607L12.0754 9.1419V6.08215C12.0754 3.12414 12.0675 3.00511 11.8359 2.50367C11.3249 1.39642 10.388 0.565196 9.25355 0.21242C8.35171 -0.0680301 3.70078 -0.0718253 2.89306 0.207254ZM17.6408 0.238567C16.4513 0.615066 15.3734 1.72168 15.0229 2.92625C14.889 3.38677 14.8651 4.00166 14.8919 6.31579L14.9246 9.14285L15.2666 9.83649C15.6786 10.672 16.4338 11.4127 17.276 11.807L17.8794 12.0896H20.9397H24L24.5931 11.8118C25.6946 11.2958 26.5108 10.3371 26.8486 9.16257C26.9956 8.65132 27.0179 8.12448 26.9891 5.84145C26.9549 3.13827 26.9537 3.12551 26.6663 2.51253C26.1008 1.3066 25.368 0.63552 24.1793 0.23551C23.5916 0.0377186 23.2903 0.0181081 20.9167 0.0234851C18.6116 0.0287567 18.2232 0.0542714 17.6408 0.238567ZM2.89444 15.0272C1.57365 15.4521 0.530292 16.5303 0.149969 17.8633C0.00476261 18.3723 -0.0177149 18.9113 0.0108831 21.1844L0.0451798 23.898L0.37506 24.5833C0.85764 25.5859 1.34993 26.094 2.28744 26.5572L3.09357 26.9555L5.8202 26.9884C8.09422 27.0158 8.64708 26.9927 9.15035 26.8495C10.3082 26.5198 11.3176 25.645 11.8359 24.5221C12.0675 24.0207 12.0754 23.9017 12.0754 20.9437V17.8839L11.7334 17.1898C11.3214 16.3538 10.5666 15.6133 9.724 15.2188L9.12059 14.9362L6.21857 14.9139C4.08701 14.8974 3.20448 14.9275 2.89444 15.0272ZM17.7513 15.0333C16.662 15.3811 15.7016 16.2324 15.2053 17.29L14.9246 17.8883V20.9481V24.0078L15.2719 24.7128C15.6938 25.5689 16.5506 26.376 17.3998 26.7172C17.9435 26.9357 18.1801 26.9548 20.7397 26.9866C23.321 27.0187 23.5366 27.0067 24.1606 26.7966C25.3686 26.39 26.0979 25.7254 26.6663 24.5133C26.9537 23.9003 26.9549 23.8876 26.9891 21.1844C27.0177 18.9113 26.9952 18.3723 26.85 17.8633C26.5186 16.7017 25.6448 15.6941 24.5192 15.1755C24.0239 14.9472 23.8669 14.9352 21.098 14.9139C18.9046 14.8969 18.0874 14.9261 17.7513 15.0333Z" fill="#06AC71"/>
</svg>
