<svg width="28" height="28" viewBox="0 0 28 28" fill="none" xmlns="http://www.w3.org/2000/svg">
<path fill-rule="evenodd" clip-rule="evenodd" d="M24.724 0.200306C24.2709 0.593724 22.3114 3.3524 22.3481 3.54531C22.3759 3.69159 22.5502 3.74713 23.0669 3.77413L23.7491 3.80981V4.55787C23.7491 5.56746 23.229 6.63984 22.4851 7.16468C22.1999 7.36591 21.9665 7.56726 21.9665 7.61209C21.9665 7.65705 22.3692 7.99707 22.8614 8.36777L23.7562 9.04186L24.0988 8.79782C25.2594 7.97078 26.2605 6.27782 26.5075 4.72473L26.6531 3.80826L27.3094 3.77329C27.7809 3.74832 27.9751 3.6879 27.9996 3.55887C28.0337 3.37964 25.9223 0.422823 25.559 0.140841C25.2933 -0.0652628 25.0065 -0.0449259 24.724 0.200306ZM12.7874 2.46341C12.6738 2.51181 10.6842 4.21 8.36622 6.23703L4.15172 9.92277L5.30493 9.96106L6.45802 9.99948L10.596 7.93927L14.7341 5.87917L14.6959 4.54324C14.6585 3.22991 14.6517 3.20101 14.2903 2.83958C13.9102 2.45948 13.2089 2.28395 12.7874 2.46341ZM12.9703 7.83437L8.71596 9.96784L13.8557 9.97509L18.9955 9.98223V8.36527C18.9955 7.05479 18.9571 6.68325 18.7928 6.40484C18.5669 6.02225 17.9893 5.70078 17.5276 5.70078C17.3609 5.70078 15.3101 6.6609 12.9703 7.83437ZM1.55128 11.0666C1.00439 11.2262 0.258434 12.0104 0.102637 12.5894C0.0151712 12.9143 -0.0154894 15.2255 0.00720885 19.77L0.0407216 26.4715L0.359566 26.9535C0.534854 27.2186 0.882457 27.5626 1.13202 27.7178L1.58563 28H12.5782H23.5708L24.0244 27.7178C24.274 27.5626 24.6216 27.2188 24.7969 26.9538C25.1022 26.4925 25.1174 26.3947 25.1561 24.6493L25.1964 22.8266L22.5417 22.824C20.1908 22.8217 19.8299 22.7955 19.3896 22.5955C18.4815 22.1828 18.0506 21.1855 18.0506 19.4966C18.0506 17.8077 18.4815 16.8103 19.3896 16.3976C19.8299 16.1976 20.1908 16.1714 22.5417 16.1692L25.1964 16.1665L25.1561 14.3438C25.1174 12.5984 25.1022 12.5007 24.7969 12.0393C24.6216 11.7744 24.274 11.4306 24.0244 11.2753L23.5708 10.9931L12.7565 10.9729C6.14298 10.9605 1.79039 10.9969 1.55128 11.0666ZM19.7585 17.2513C19.2137 17.522 19.0549 18.0286 19.0549 19.4966C19.0549 21.0139 19.2233 21.5059 19.8285 21.7567C20.0354 21.8424 21.2503 21.8742 23.4283 21.8509L26.7159 21.8157L27.1041 21.4269L27.4925 21.0381V19.4966V17.955L27.1041 17.5662L26.7159 17.1774L23.3607 17.1529C21.2422 17.1376 19.9146 17.1738 19.7585 17.2513ZM22.5998 17.7559C23.8207 18.2665 24.1184 19.8685 23.1689 20.8188C22.398 21.5902 21.2973 21.5902 20.5264 20.8188C19.0568 19.348 20.6784 16.9526 22.5998 17.7559ZM21.1887 18.8371C20.5991 19.427 21.0169 20.448 21.8477 20.448C22.0792 20.448 22.3228 20.3401 22.5066 20.156C22.6906 19.972 22.7984 19.7282 22.7984 19.4966C22.7984 19.2649 22.6906 19.0211 22.5066 18.8371C22.3228 18.653 22.0792 18.5451 21.8477 18.5451C21.6162 18.5451 21.3725 18.653 21.1887 18.8371Z" fill="#06AC71"/>
</svg>
