<svg width="15" height="18" viewBox="0 0 15 18" fill="none" xmlns="http://www.w3.org/2000/svg">
<path fill-rule="evenodd" clip-rule="evenodd" d="M0.713302 0.669515C0.545639 1.03772 0.309065 1.74302 0.187515 2.23679C-0.0072982 3.02879 -0.0266757 3.32968 0.0235818 4.78917C0.0726996 6.2149 0.147516 6.768 0.564291 8.78698C1.37805 12.729 1.33494 14.6269 0.383571 16.7437C0.154459 17.2537 -0.0054329 17.7449 0.0283485 17.8354C0.0829583 17.9816 0.858065 18 6.93902 18H13.7881L14.1385 17.2207C14.768 15.8203 14.9334 15.0368 14.986 13.2071C15.0366 11.4509 14.9839 11.0475 14.2412 7.50888C13.6923 4.89376 13.7921 2.95775 14.5727 1.08032C14.8745 0.354035 14.9162 0.17297 14.7991 0.0967101C14.7201 0.0453728 11.5871 0.00255625 7.83672 0.00159767L1.01806 0L0.713302 0.669515ZM14.1339 0.718935C13.4983 2.24904 13.3064 3.38325 13.3943 5.09091C13.4556 6.28349 13.5315 6.74531 14.1412 9.63905C14.5078 11.3788 14.5967 13.5574 14.3519 14.7994C14.2555 15.2886 14.0251 16.077 13.8402 16.5515L13.5037 17.4142L7.09943 17.4417C1.98715 17.4635 0.706359 17.4421 0.750192 17.3352C1.52115 15.4554 1.64654 14.8626 1.64892 13.0869C1.65079 11.6757 1.52478 10.768 0.919203 7.8284C0.332174 4.97854 0.388545 2.77615 1.08956 1.17064L1.3681 0.532544H7.78978C13.866 0.532544 14.2072 0.542556 14.1339 0.718935ZM7.64201 2.14157C7.61486 2.42478 7.5475 2.50647 7.25912 2.60574C6.80494 2.76199 6.52101 3.13125 6.52101 3.56549C6.52101 4.04744 6.84172 4.41735 7.45663 4.64464C8.35277 4.97578 8.61265 5.41225 8.17899 5.85799C7.92843 6.11553 7.30088 6.14173 6.77675 5.91667C6.42453 5.76543 6.41738 5.76746 6.41738 6.01892C6.41738 6.22353 6.49676 6.29989 6.80991 6.39639C7.17788 6.50961 7.19985 6.53996 7.1613 6.87994C7.12586 7.19127 7.15104 7.2426 7.3387 7.2426C7.51797 7.2426 7.55724 7.17785 7.55724 6.88164C7.55724 6.55551 7.59123 6.51419 7.90946 6.45284C8.65131 6.3098 9.05689 5.64508 8.80975 4.97705C8.72861 4.75764 8.49929 4.58414 7.8962 4.28581C7.20347 3.94328 7.08627 3.84572 7.05757 3.58828C7.004 3.10804 7.20814 2.95168 7.81226 3.01026C8.09941 3.03817 8.42074 3.09813 8.52623 3.14361C8.87783 3.29517 8.67493 2.83676 8.31339 2.66272C8.03961 2.53086 7.98521 2.44779 8.00252 2.18759C8.01723 1.96637 7.97143 1.86103 7.84926 1.83504C7.71921 1.80724 7.66657 1.88499 7.64201 2.14157ZM2.7263 8.78187C2.69459 8.86697 2.69874 8.98679 2.73563 9.04814C2.82889 9.20322 12.2854 9.20364 12.3786 9.04857C12.4153 8.98743 12.389 8.86761 12.3202 8.7823C12.1324 8.54979 2.81314 8.54936 2.7263 8.78187ZM3.03717 11.2316C3.00546 11.3167 3.00961 11.4365 3.0465 11.4978C3.15157 11.6725 12.5976 11.6514 12.6603 11.4763C12.8015 11.0814 12.7483 11.0769 7.8562 11.0769C3.78938 11.0769 3.0865 11.0995 3.03717 11.2316ZM3.12007 13.7663L3.15323 14.0059L7.8163 14.0315C10.4107 14.0458 12.5435 14.0151 12.624 13.9624C12.7035 13.9103 12.74 13.7909 12.705 13.6971C12.6479 13.5442 12.1488 13.5266 7.86418 13.5266H3.08701L3.12007 13.7663ZM2.85966 15.9409C2.82163 15.9798 2.79055 16.0997 2.79055 16.2071C2.79055 16.3936 3.00391 16.4024 7.55113 16.4024C10.7463 16.4024 12.3337 16.3658 12.3786 16.2912C12.4153 16.23 12.389 16.1102 12.3202 16.0249C12.214 15.8934 11.4918 15.8698 7.5618 15.8698C5.01359 15.8698 2.89759 15.9018 2.85966 15.9409Z" fill="white"/>
</svg>
