<svg width="23" height="13" viewBox="0 0 23 13" fill="none" xmlns="http://www.w3.org/2000/svg">
<path fill-rule="evenodd" clip-rule="evenodd" d="M4.57255 0.428906C4.34886 0.661782 3.83749 1.34836 3.43619 1.95437C2.90395 2.75786 2.64738 3.00015 2.48886 2.8486C2.21457 2.58635 0.871851 2.57826 0.368356 2.8358C-0.137699 3.09484 -0.118599 3.86633 0.402618 4.21536C0.631032 4.36841 0.759614 4.58378 0.688136 4.6941C0.441409 5.0757 0.174598 7.07106 0.171053 8.56094C0.1681 9.77559 0.242925 10.1546 0.569794 10.577C0.810613 10.8886 0.972078 11.3875 0.972078 11.8205C0.972078 12.2181 1.07841 12.645 1.20837 12.7693C1.53012 13.0769 5.13985 13.0769 5.46159 12.7693C5.59155 12.645 5.69789 12.2638 5.69789 11.9221V11.3009H11.3098H16.9217V11.9221C16.9217 12.8804 17.1777 12.9952 19.3127 12.9952C21.0721 12.9952 21.2568 12.9606 21.5378 12.5767C21.7064 12.3466 21.8471 11.902 21.8507 11.5883C21.854 11.2749 21.9818 10.8607 22.1346 10.6679C22.559 10.1322 22.6927 8.52047 22.458 6.76552C22.3416 5.89482 22.1959 5.01301 22.1342 4.80593C22.0533 4.53371 22.1476 4.37726 22.4749 4.24115C23.0509 4.0015 23.1875 3.21966 22.7116 2.88682C22.2313 2.55115 20.8667 2.57675 20.4593 2.92917C20.1537 3.19349 20.0594 3.11913 19.3151 2.02685C17.7938 -0.205527 18.6263 0.00532299 11.3364 0.00532299C4.99512 0.00532299 4.97779 0.00645254 4.57255 0.428906ZM17.6418 1.08781C17.791 1.26892 18.2807 1.99654 18.7301 2.70458C19.322 3.63741 19.4805 4.03124 19.3057 4.1346C18.9443 4.34808 13.5713 4.75905 11.2113 4.75359C9.30368 4.74926 5.29304 4.46669 3.77763 4.22986L3.13728 4.12989L3.4614 3.52652C3.6398 3.19481 4.13069 2.43631 4.55227 1.84085L5.31884 0.758359H11.3446C16.849 0.758359 17.3941 0.786786 17.6418 1.08781ZM1.81268 3.51748C1.67937 3.56907 1.41355 3.57227 1.22196 3.52445C1.03036 3.47663 1.13945 3.43446 1.46435 3.4307C1.78925 3.42693 1.94599 3.4659 1.81268 3.51748ZM21.8974 3.51748C21.7641 3.56907 21.4982 3.57227 21.3066 3.52445C21.115 3.47663 21.2241 3.43446 21.549 3.4307C21.8739 3.42693 22.0307 3.4659 21.8974 3.51748ZM7.56852 5.39273C10.9169 5.70524 12.3851 5.67079 17.7763 5.15289C20.4209 4.89893 20.9345 4.89272 21.1534 5.11204C21.8036 5.76379 21.8792 9.98983 21.2474 10.3633C21.1046 10.4477 16.6509 10.5136 11.3503 10.5098C-0.229261 10.5017 0.851964 10.7971 1.03765 7.69213C1.10519 6.56559 1.26035 5.46521 1.38263 5.24683C1.63113 4.80273 1.11425 4.79049 7.56852 5.39273ZM1.5628 7.60308V8.8535L2.49812 8.85557C3.01245 8.8567 3.76582 8.91016 4.17184 8.97436L4.91025 9.09108V7.84274C4.91025 6.65746 4.88682 6.59439 4.44692 6.59439C4.19193 6.59439 3.43875 6.53998 2.7732 6.47353L1.5628 6.35248V7.60308ZM18.8415 6.54036L17.9062 6.6151V7.81393V9.01277L19.4323 8.90734C20.2715 8.84955 21.0006 8.76615 21.0524 8.72209C21.104 8.67823 21.1483 8.16033 21.1509 7.57127L21.1552 6.50026L20.466 6.48294C20.087 6.47334 19.3559 6.49913 18.8415 6.54036ZM4.12262 7.73468C4.12262 8.07392 4.01865 8.11496 3.28753 8.06413C2.67829 8.02196 2.43452 7.91729 2.38687 7.67688C2.33232 7.40202 2.47075 7.34743 3.22215 7.34743C3.99974 7.34743 4.12262 7.40033 4.12262 7.73468ZM5.50098 8.52913V9.74622L6.47882 9.87029C7.73451 10.0296 14.7029 10.0282 16.1833 9.8684L17.3155 9.74622V8.52913V7.31203L16.2821 7.44796C15.7138 7.5227 13.5207 7.58388 11.4082 7.58388C9.2958 7.58388 7.10263 7.5227 6.53435 7.44796L5.50098 7.31203V8.52913ZM20.2691 7.72394C20.2691 8.03777 20.1378 8.10046 19.4815 8.10046C18.8252 8.10046 18.6939 8.03777 18.6939 7.72394C18.6939 7.41012 18.8252 7.34743 19.4815 7.34743C20.1378 7.34743 20.2691 7.41012 20.2691 7.72394ZM16.5279 8.68501C16.5279 9.06473 14.9654 9.22682 11.2895 9.2287C7.74081 9.23058 6.28861 9.07282 6.28861 8.68557C6.28861 8.41523 6.83641 8.38285 11.4082 8.38285C15.9771 8.38285 16.5279 8.41542 16.5279 8.68501ZM4.91025 11.7715C4.91025 12.2343 4.88406 12.2422 3.33498 12.2422C1.7859 12.2422 1.75971 12.2343 1.75971 11.7715C1.75971 11.3088 1.7859 11.3009 3.33498 11.3009C4.88406 11.3009 4.91025 11.3088 4.91025 11.7715ZM20.8598 11.7715C20.8598 12.2343 20.8337 12.2422 19.2846 12.2422C17.7355 12.2422 17.7093 12.2343 17.7093 11.7715C17.7093 11.3088 17.7355 11.3009 19.2846 11.3009C20.8337 11.3009 20.8598 11.3088 20.8598 11.7715Z" fill="white"/>
</svg>
