<svg width="20" height="16" viewBox="0 0 20 16" fill="none" xmlns="http://www.w3.org/2000/svg">
<path fill-rule="evenodd" clip-rule="evenodd" d="M0.045623 0.18689C0.003324 0.289754 -0.0123779 3.87235 0.0105341 8.14839L0.0521922 15.923L10.0261 15.9616L20 16V8.00008V0H10.0612C2.25767 0 0.105707 0.0402187 0.045623 0.18689ZM3.49699 1.49512V2.24268H2.61577H1.73454V1.49512V0.747559H2.61577H3.49699V1.49512ZM6.34929 1.51874L6.3009 2.28992H5.5799H4.85889L4.81051 1.51874L4.76196 0.747559H5.5799H6.39784L6.34929 1.51874ZM9.42526 1.49512V2.24268H8.54403H7.6628V1.49512V0.747559H8.54403H9.42526V1.49512ZM12.3093 1.47882V2.20993L11.7084 2.27856C10.8114 2.38083 10.707 2.2977 10.707 1.47912V0.747559H11.5082H12.3093V1.47882ZM15.3218 1.5325L15.2734 2.31743H14.4723H13.6712L13.6228 1.5325L13.5742 0.747559H14.4723H15.3703L15.3218 1.5325ZM18.2058 1.5325L18.1574 2.31743H17.4364H16.7154L16.667 1.5325L16.6185 0.747559H17.4364H18.2544L18.2058 1.5325ZM18.0453 3.46867C18.1858 3.59979 18.2375 4.78587 18.2375 7.87075C18.2375 12.0649 18.2351 12.0951 17.8814 12.3262C17.5713 12.5289 16.547 12.559 9.95031 12.559C2.58901 12.559 2.36646 12.5506 2.05498 12.26C1.7504 11.9757 1.73454 11.7616 1.73454 7.91425C1.73454 5.41083 1.79783 3.75738 1.90037 3.57841C2.06091 3.29853 2.31967 3.28926 9.9596 3.28926C15.8853 3.28926 17.9009 3.33396 18.0453 3.46867ZM3.49699 14.2036V14.9512H2.61577H1.73454V14.2036V13.4561H2.61577H3.49699V14.2036ZM6.38101 14.1876C6.38101 14.9832 6.30747 15.0481 5.41967 15.0345L4.85889 15.0259L4.81051 14.241L4.76196 13.4561H5.57157H6.38101V14.1876ZM9.42526 14.1876C9.42526 15.0624 9.32384 15.1103 7.78297 14.9627C7.71696 14.9564 7.6628 14.6148 7.6628 14.2036V13.4561H8.54403H9.42526V14.1876ZM12.2776 14.241L12.2292 15.0259L11.5082 15.0102L10.7872 14.9945L10.7388 14.2253L10.6902 13.4561H11.5082H12.3261L12.2776 14.241ZM15.3218 14.241L15.2734 15.0259H14.4723H13.6712L13.6228 14.241L13.5742 13.4561H14.4723H15.3703L15.3218 14.241ZM18.2058 14.241L18.1574 15.0259H17.4364H16.7154L16.667 14.241L16.6185 13.4561H17.4364H18.2544L18.2058 14.241Z" fill="white"/>
</svg>
