<svg width="19" height="16" viewBox="0 0 19 16" fill="none" xmlns="http://www.w3.org/2000/svg">
<path fill-rule="evenodd" clip-rule="evenodd" d="M0.0243092 0.149121C0.00226839 0.237755 -0.00642662 1.37905 0.00509933 2.68531L0.0259944 5.06042L0.207646 5.37199C0.307538 5.54335 0.511635 5.79504 0.661202 5.93133L0.933174 6.17908L0.951441 10.8074L0.969639 15.4357L1.2619 15.7107C1.54284 15.9749 1.56845 15.9844 1.92056 15.955C2.35713 15.9184 2.65128 15.6815 2.75852 15.28C2.80152 15.119 2.81966 13.5767 2.80799 11.0771C2.79195 7.65493 2.77605 7.11993 2.68842 7.06406C2.55004 6.9759 2.5123 6.981 2.38989 7.10436C2.296 7.19912 2.284 7.66873 2.284 11.2468V15.2823L2.13417 15.3881C1.91409 15.5435 1.70555 15.5175 1.54749 15.3148C1.40924 15.1376 1.40776 15.0871 1.40776 10.4913V5.84684L1.2561 5.7682C1.03165 5.65176 0.736896 5.35996 0.609774 5.12839C0.513185 4.95248 0.493166 4.58816 0.464115 2.47753L0.430414 0.0305798L0.247414 0.00930496C0.102295 -0.00755179 0.0561236 0.0214037 0.0243092 0.149121ZM1.11307 0.100454C1.04877 0.269361 1.06454 4.02767 1.12992 4.13173C1.1614 4.18176 1.25947 4.21234 1.34797 4.1997L1.50887 4.1768V2.10369V0.0305798L1.33213 0.00991662C1.21694 -0.00354159 1.14064 0.0279969 1.11307 0.100454ZM2.23264 0.0755765C2.1347 0.174338 2.11192 3.97825 2.20838 4.13173C2.23985 4.18176 2.33792 4.21234 2.42643 4.1997L2.58732 4.1768V2.10369C2.58732 0.0783631 2.58422 0.030104 2.4517 0.0110042C2.37715 0.000196848 2.27854 0.0292884 2.23264 0.0755765ZM3.30853 0.0781594C3.24874 0.138449 3.22765 0.776627 3.22765 2.52783C3.22765 5.25026 3.23014 5.23734 2.61879 5.68024C2.26803 5.93438 2.21774 6.04185 2.38423 6.18119C2.63524 6.39128 3.30206 5.88606 3.5739 5.27976C3.73 4.93148 3.73358 4.87785 3.754 2.55733C3.76943 0.809321 3.75407 0.16489 3.69522 0.0933848C3.59796 -0.0247484 3.41766 -0.0318853 3.30853 0.0781594ZM8.19001 0.0982108C6.98255 0.350654 5.86803 0.859347 4.87903 1.60954L4.2724 2.0697L4.2517 2.43545L4.23101 2.80114L4.62242 2.44721C5.52697 1.62918 6.67876 0.996512 7.81107 0.695742C8.59955 0.486324 9.94822 0.414071 10.7802 0.536758C12.3424 0.767111 13.8552 1.54979 15.0065 2.72324L15.5624 3.28991V2.90887V2.52783L15.1412 2.15079C14 1.12953 13.0795 0.613973 11.7053 0.226404C11.1622 0.0731975 10.9208 0.0468927 9.86686 0.0256859C8.99521 0.0081494 8.52311 0.0286087 8.19001 0.0982108ZM18.0458 0.0913456C17.375 0.332982 16.7944 0.851802 16.4664 1.50283C16.0939 2.24228 16.0828 2.34118 16.0524 5.19636C16.0231 7.9402 16.0451 8.22106 16.2887 8.22106C16.5682 8.22106 16.5735 8.16906 16.5743 5.36968C16.5751 2.52653 16.5936 2.32024 16.9032 1.7098C17.1927 1.13864 17.7861 0.645647 18.3428 0.513716L18.5282 0.469807V7.80276C18.5282 15.1184 18.5278 15.1362 18.3885 15.3148C18.2206 15.5301 17.9749 15.5477 17.7867 15.358C17.6557 15.2259 17.6519 15.1314 17.6519 11.9983C17.6519 9.10991 17.6405 8.76299 17.5421 8.66382C17.4817 8.60292 17.3883 8.57015 17.3344 8.59095C17.2805 8.61182 17.2238 8.62888 17.2083 8.62888C17.1928 8.62888 17.1801 10.1291 17.1801 11.9628C17.1801 15.6423 17.1723 15.5707 17.6047 15.8365C18.0498 16.1102 18.6729 15.9306 18.8918 15.4656C18.9891 15.2586 19 14.4846 19 7.76382V0.292199L18.844 0.144363C18.6671 -0.0232531 18.4111 -0.0402458 18.0458 0.0913456ZM8.83317 2.65568C6.72244 3.0096 4.94346 4.69834 4.47858 6.78932C4.32153 7.49547 4.33333 8.58232 4.50541 9.2746C4.98424 11.2006 6.44548 12.6757 8.41783 13.2243C9.05034 13.4003 10.3621 13.3867 11.0561 13.1971C14.4814 12.2609 16.0756 8.28495 14.2578 5.21172C13.1557 3.34844 10.9369 2.30291 8.83317 2.65568ZM10.9916 3.27047C11.9247 3.51762 12.9334 4.20392 13.52 4.99081C14.2156 5.92392 14.5131 6.80822 14.5155 7.94917C14.5173 8.83606 14.4322 9.25788 14.1064 9.97742C13.2896 11.7814 11.6408 12.8616 9.69836 12.8654C8.83425 12.8671 8.3296 12.7457 7.50775 12.3385C5.87525 11.5296 4.84532 9.85242 4.84532 8.00267C4.84532 5.54416 6.60387 3.50028 9.04556 3.12101C9.53814 3.04447 10.3832 3.10938 10.9916 3.27047ZM16.3199 11.4157C15.6323 12.7988 14.4303 14.0027 13.0448 14.6964C11.7948 15.3222 10.7695 15.5352 9.30162 15.4741C7.87982 15.4148 6.68826 15.0222 5.50776 14.2241C4.90666 13.8177 4.02651 12.9506 3.6289 12.3731L3.32875 11.9372L3.30772 12.2667C3.29613 12.4479 3.30476 12.6689 3.32693 12.7579C3.38773 13.0024 4.60577 14.199 5.21025 14.6083C7.43462 16.114 10.1792 16.416 12.6437 15.426C14.0784 14.8497 15.4259 13.7518 16.2718 12.4697L16.6465 11.9018L16.6269 11.3699L16.6072 10.8379L16.3199 11.4157Z" fill="white"/>
</svg>
